<svg  viewBox="0 0 629 158" fill="none" xmlns="http://www.w3.org/2000/svg">
<path d="M209.725 137.548V63.4822L195.809 69.4487V137.54L186.529 158H219L209.725 137.548Z" fill="currentColor"/>
<path d="M95.2205 101.898L38.0908 77.4047V101.85C38.0908 118.326 69.2434 131.682 107.671 131.682C146.1 131.682 177.252 118.326 177.252 101.85V77.4044L120.117 101.899C110.338 105.221 105.001 105.22 95.2205 101.898Z" fill="currentColor"/>
<path d="M113.895 91.2269L212.777 48.8323C216.2 47.3645 216.2 44.9634 212.777 43.4954L113.895 1.10086C110.473 -0.366952 104.872 -0.366952 101.448 1.10086L2.56676 43.4954C-0.855587 44.9633 -0.855587 47.3643 2.56676 48.8323L101.448 91.2269C104.872 92.6947 110.473 92.6947 113.895 91.2269Z" fill="currentColor"/>
<path d="M243.795 52.916C244.934 52.916 245.96 53.1113 246.871 53.502C247.815 53.86 248.678 54.2669 249.459 54.7227C250.273 55.1784 251.038 55.6016 251.754 55.9922C252.47 56.3503 253.202 56.5293 253.951 56.5293C254.537 56.4967 255.204 56.4154 255.953 56.2852C256.604 56.1549 257.353 55.9596 258.199 55.6992C259.078 55.4062 260.055 54.9831 261.129 54.4297C260.055 55.4714 259.176 56.3503 258.492 57.0664C257.841 57.75 257.337 58.3197 256.979 58.7754C256.555 59.2962 256.246 59.7031 256.051 59.9961C255.855 60.3542 255.562 60.8913 255.172 61.6074C254.814 62.2585 254.326 63.1374 253.707 64.2441C253.089 65.3184 252.307 66.7344 251.363 68.4922C251.363 66.2461 251.135 64.5046 250.68 63.2676C250.257 62.0306 249.785 61.0866 249.264 60.4355C248.645 59.6868 247.945 59.2148 247.164 59.0195C246.448 58.9219 245.732 59.0521 245.016 59.4102C244.299 59.7357 243.583 60.224 242.867 60.875C242.184 61.526 241.516 62.3073 240.865 63.2188C240.247 64.0977 239.677 65.0254 239.156 66.002C238.668 66.9785 238.261 67.9714 237.936 68.9805C237.61 69.957 237.398 70.8685 237.301 71.7148C237.203 72.4635 237.187 73.3424 237.252 74.3516C237.317 75.3281 237.464 76.3372 237.691 77.3789C237.919 78.388 238.212 79.3809 238.57 80.3574C238.928 81.334 239.368 82.2129 239.889 82.9941C240.442 83.7428 241.061 84.3613 241.744 84.8496C242.428 85.3053 243.209 85.5169 244.088 85.4844C245.064 85.4193 246.025 85.1263 246.969 84.6055C247.783 84.1823 248.613 83.5312 249.459 82.6523C250.305 81.7409 251.038 80.4551 251.656 78.7949L258.883 80.1133C256.799 82.6523 254.765 84.5566 252.779 85.8262C250.826 87.0957 249.068 87.9909 247.506 88.5117C245.683 89.0977 243.958 89.3743 242.33 89.3418C240.279 89.1139 238.359 88.4954 236.568 87.4863C234.778 86.4772 233.232 85.2565 231.93 83.8242C230.66 82.3594 229.667 80.7643 228.951 79.0391C228.235 77.3138 227.926 75.6211 228.023 73.9609C228.089 72.8542 228.316 71.5684 228.707 70.1035C229.098 68.6061 229.618 67.0762 230.27 65.5137C230.953 63.9512 231.767 62.4212 232.711 60.9238C233.655 59.4264 234.697 58.0918 235.836 56.9199C236.975 55.7155 238.212 54.7552 239.547 54.0391C240.914 53.2904 242.33 52.916 243.795 52.916ZM272.457 67.125C273.303 67.125 274.182 67.2878 275.094 67.6133C276.005 67.9062 276.884 68.2969 277.73 68.7852C278.577 69.2409 279.342 69.7454 280.025 70.2988C280.742 70.8197 281.327 71.3242 281.783 71.8125C282.597 72.6914 283.15 73.8796 283.443 75.377C283.769 76.8418 283.834 78.3555 283.639 79.918C283.443 81.4479 282.988 82.8965 282.271 84.2637C281.555 85.6309 280.562 86.64 279.293 87.291C278.382 87.7467 277.486 88.1048 276.607 88.3652C275.729 88.6257 274.882 88.821 274.068 88.9512C273.255 89.0814 272.49 89.1465 271.773 89.1465C271.057 89.1465 270.439 89.1302 269.918 89.0977C268.941 89.0326 267.916 88.6908 266.842 88.0723C265.8 87.4538 264.807 86.6888 263.863 85.7773C262.952 84.8659 262.171 83.873 261.52 82.7988C260.868 81.6921 260.478 80.6504 260.348 79.6738C260.152 78.3392 260.12 76.9395 260.25 75.4746C260.38 74.0098 260.852 72.6589 261.666 71.4219C262.512 70.1849 263.782 69.1595 265.475 68.3457C267.2 67.5319 269.527 67.125 272.457 67.125ZM270.846 86.0703C271.204 86.1354 271.692 86.054 272.311 85.8262C272.929 85.5658 273.531 85.1589 274.117 84.6055C274.736 84.0521 275.273 83.3522 275.729 82.5059C276.217 81.627 276.51 80.569 276.607 79.332C276.705 78.1276 276.705 77.0208 276.607 76.0117C276.542 75.0026 276.396 74.1237 276.168 73.375C275.94 72.5938 275.68 71.959 275.387 71.4707C275.094 70.9824 274.785 70.6406 274.459 70.4453C273.906 70.1523 273.238 69.9245 272.457 69.7617C271.676 69.5664 271.008 69.599 270.455 69.8594C270.195 69.9896 269.869 70.2663 269.479 70.6895C269.088 71.1126 268.697 71.6497 268.307 72.3008C267.916 72.9193 267.558 73.6354 267.232 74.4492C266.939 75.263 266.728 76.1094 266.598 76.9883C266.467 77.8672 266.435 78.8112 266.5 79.8203C266.598 80.8294 266.809 81.7897 267.135 82.7012C267.46 83.5801 267.916 84.3451 268.502 84.9961C269.12 85.6146 269.902 85.9727 270.846 86.0703ZM286.227 66.5391C287.073 66.7018 287.805 66.832 288.424 66.9297C289.075 66.9948 289.628 67.0599 290.084 67.125C290.605 67.1901 291.061 67.2389 291.451 67.2715C291.842 67.304 292.298 67.3366 292.818 67.3691C293.697 67.4017 294.934 67.4017 296.529 67.3691C295.585 67.304 294.837 67.5482 294.283 68.1016C293.762 68.6224 293.372 69.2246 293.111 69.9082C292.786 70.722 292.607 71.666 292.574 72.7402C292.509 74.1725 292.542 75.4746 292.672 76.6465C292.835 77.7858 293.111 78.7624 293.502 79.5762C293.925 80.3574 294.479 80.9434 295.162 81.334C295.846 81.6921 296.725 81.7897 297.799 81.627C298.873 81.4642 299.687 81.0898 300.24 80.5039C300.826 79.8854 301.249 79.1367 301.51 78.2578C301.77 77.3464 301.917 76.321 301.949 75.1816C302.014 74.0423 302.063 72.8542 302.096 71.6172C302.096 70.3802 302.079 69.5013 302.047 68.9805C302.047 68.4271 302.031 68.069 301.998 67.9062C301.965 67.7435 301.917 67.6784 301.852 67.7109C301.786 67.7109 301.705 67.6296 301.607 67.4668C301.542 67.3366 301.445 67.2064 301.314 67.0762C301.217 66.946 301.087 66.7995 300.924 66.6367C300.761 66.4414 300.582 66.2461 300.387 66.0508C301.233 66.0833 301.982 66.1159 302.633 66.1484C303.316 66.1484 303.886 66.1647 304.342 66.1973C304.863 66.2298 305.318 66.2624 305.709 66.2949C306.067 66.3275 306.539 66.3763 307.125 66.4414C307.613 66.5065 308.248 66.5716 309.029 66.6367C309.811 66.7018 310.738 66.7995 311.812 66.9297C311.064 67.0924 310.462 67.3366 310.006 67.6621C309.55 67.9876 309.192 68.3132 308.932 68.6387C308.639 68.9967 308.427 69.3874 308.297 69.8105C308.199 70.3639 308.199 71.2103 308.297 72.3496C308.362 73.3587 308.525 74.7422 308.785 76.5C309.046 78.2578 309.452 80.569 310.006 83.4336L306.148 85.7285L305.367 79.2344C304.423 80.8294 303.414 82.0664 302.34 82.9453C301.298 83.7917 300.322 84.4102 299.41 84.8008C298.336 85.2565 297.294 85.5169 296.285 85.582C294.951 85.582 293.795 85.5007 292.818 85.3379C291.874 85.1426 291.061 84.8984 290.377 84.6055C289.693 84.3125 289.14 83.987 288.717 83.6289C288.326 83.2383 288.033 82.8477 287.838 82.457C287.382 81.6432 287.138 80.6016 287.105 79.332C287.073 78.0299 287.122 76.7441 287.252 75.4746C287.382 74.1725 287.529 72.9844 287.691 71.9102C287.854 70.8359 287.903 70.1035 287.838 69.7129C287.773 69.4199 287.675 69.0944 287.545 68.7363C287.415 68.4434 287.252 68.1178 287.057 67.7598C286.861 67.3691 286.585 66.9622 286.227 66.5391ZM312.057 65.6113C312.675 65.6439 313.229 65.6602 313.717 65.6602C314.238 65.6276 314.677 65.5951 315.035 65.5625C315.458 65.5299 315.833 65.4974 316.158 65.4648C316.646 65.3997 317.151 65.3184 317.672 65.2207C318.128 65.1556 318.6 65.0742 319.088 64.9766C319.609 64.8464 320.113 64.6999 320.602 64.5371C320.406 65.0254 320.243 65.4486 320.113 65.8066C319.983 66.1647 319.885 66.474 319.82 66.7344C319.723 67.0273 319.674 67.2715 319.674 67.4668C319.641 67.6947 319.625 67.9714 319.625 68.2969C319.592 68.8503 319.592 69.7454 319.625 70.9824C321.318 69.5176 322.734 68.3783 323.873 67.5645C325.045 66.7507 325.973 66.1159 326.656 65.6602C327.47 65.1393 328.105 64.7975 328.561 64.6348C329.765 64.4395 330.823 64.7161 331.734 65.4648C332.125 65.7904 332.499 66.2298 332.857 66.7832C333.215 67.304 333.525 68.0039 333.785 68.8828C334.046 69.7617 334.241 70.8197 334.371 72.0566C334.501 73.2611 334.518 74.7096 334.42 76.4023C333.736 76.4674 333.118 76.5326 332.564 76.5977C332.044 76.6628 331.604 76.7116 331.246 76.7441C330.823 76.8092 330.432 76.8418 330.074 76.8418L328.756 76.9883C328.3 77.0534 327.73 77.1185 327.047 77.1836C326.396 77.2161 325.598 77.2812 324.654 77.3789C326.021 76.2721 326.9 75.3118 327.291 74.498C327.714 73.6517 327.893 72.9518 327.828 72.3984C327.763 71.7799 327.47 71.2428 326.949 70.7871C326.331 70.429 325.663 70.2988 324.947 70.3965C324.329 70.4616 323.613 70.7383 322.799 71.2266C321.985 71.7148 321.122 72.6263 320.211 73.9609C320.276 76.0443 320.341 77.7695 320.406 79.1367C320.504 80.5039 320.585 81.6107 320.65 82.457C320.748 83.4336 320.829 84.1986 320.895 84.752C320.992 85.2402 321.188 85.7611 321.48 86.3145C321.708 86.7702 322.034 87.2747 322.457 87.8281C322.88 88.3815 323.434 88.9349 324.117 89.4883C322.685 89.4232 321.513 89.4232 320.602 89.4883C320.048 89.5208 319.56 89.5534 319.137 89.5859C318.681 89.651 318.193 89.7161 317.672 89.7812C317.216 89.8464 316.679 89.9115 316.061 89.9766C315.475 90.0742 314.824 90.1719 314.107 90.2695C314.368 89.9115 314.579 89.4883 314.742 89C314.905 88.5443 315.035 88.1048 315.133 87.6816C315.263 87.1934 315.361 86.6888 315.426 86.168C315.458 85.7122 315.475 85.0286 315.475 84.1172C315.507 83.2057 315.491 82.1803 315.426 81.041C315.393 79.8691 315.344 78.6647 315.279 77.4277C315.214 76.1582 315.133 74.9701 315.035 73.8633C314.938 72.7565 314.824 71.7962 314.693 70.9824C314.596 70.1361 314.482 69.5501 314.352 69.2246C314.189 68.834 313.993 68.4434 313.766 68.0527C313.57 67.6947 313.326 67.3203 313.033 66.9297C312.74 66.5065 312.415 66.0671 312.057 65.6113ZM358.004 61.1191C357.711 61.8353 357.451 62.4863 357.223 63.0723C357.027 63.6582 356.848 64.179 356.686 64.6348C356.523 65.1556 356.376 65.6113 356.246 66.002C356.116 66.4577 355.969 66.9785 355.807 67.5645C355.644 68.0853 355.432 68.7363 355.172 69.5176C354.944 70.2663 354.667 71.1615 354.342 72.2031C354.081 70.6406 353.609 69.4036 352.926 68.4922C352.242 67.5482 351.542 66.8158 350.826 66.2949C349.98 65.709 349.068 65.2858 348.092 65.0254C346.334 64.7324 345.064 64.765 344.283 65.123C343.502 65.4811 342.981 65.9368 342.721 66.4902C342.59 66.7181 342.444 67.0111 342.281 67.3691C342.151 67.6947 342.037 68.0365 341.939 68.3945C341.874 68.7526 341.858 69.1107 341.891 69.4688C341.923 69.8268 342.07 70.1198 342.33 70.3477C342.493 70.5104 342.916 70.7383 343.6 71.0312C344.283 71.2917 345.097 71.6009 346.041 71.959C347.018 72.2845 348.043 72.6426 349.117 73.0332C350.224 73.4238 351.266 73.8145 352.242 74.2051C353.219 74.5957 354.065 74.9863 354.781 75.377C355.497 75.7676 355.969 76.1257 356.197 76.4512C356.393 76.7767 356.604 77.2161 356.832 77.7695C357.092 78.2904 357.271 78.8763 357.369 79.5273C357.499 80.1458 357.532 80.7969 357.467 81.4805C357.434 82.1315 357.255 82.7826 356.93 83.4336C356.604 84.0846 356.083 84.6868 355.367 85.2402C354.684 85.7936 353.756 86.2493 352.584 86.6074C351.217 87.0306 349.898 87.1445 348.629 86.9492C347.359 86.7539 346.188 86.4609 345.113 86.0703C344.072 85.6797 343.16 85.3053 342.379 84.9473C341.598 84.5566 341.044 84.3939 340.719 84.459C340.361 84.5241 339.954 84.7031 339.498 84.9961C339.042 85.2891 338.603 85.5983 338.18 85.9238C337.789 86.2168 337.447 86.4935 337.154 86.7539C336.861 86.9818 336.715 87.0632 336.715 86.998C336.715 86.9329 336.764 86.7376 336.861 86.4121C336.992 86.0866 337.122 85.696 337.252 85.2402C337.415 84.752 337.561 84.2311 337.691 83.6777C337.854 83.0918 337.968 82.5384 338.033 82.0176C338.098 81.5944 338.18 81.0736 338.277 80.4551C338.342 79.9017 338.424 79.2344 338.521 78.4531C338.652 77.6393 338.798 76.6628 338.961 75.5234C339.124 76.3698 339.352 77.1022 339.645 77.7207C339.97 78.3392 340.279 78.8763 340.572 79.332C340.93 79.8529 341.272 80.2923 341.598 80.6504C342.086 81.1061 342.656 81.5293 343.307 81.9199C343.99 82.3105 344.674 82.6523 345.357 82.9453C346.041 83.2057 346.692 83.3685 347.311 83.4336C347.929 83.4987 348.45 83.4336 348.873 83.2383C349.296 83.043 349.654 82.6849 349.947 82.1641C350.273 81.6432 350.501 81.0736 350.631 80.4551C350.761 79.8366 350.81 79.2507 350.777 78.6973C350.745 78.1113 350.598 77.6393 350.338 77.2812C350.143 77.0534 349.687 76.7604 348.971 76.4023C348.287 76.0443 347.457 75.6536 346.48 75.2305C345.536 74.8073 344.527 74.3678 343.453 73.9121C342.411 73.4564 341.419 73.0007 340.475 72.5449C339.563 72.0566 338.798 71.6009 338.18 71.1777C337.594 70.722 337.268 70.3151 337.203 69.957C337.138 69.4362 337.089 68.8665 337.057 68.248C337.024 67.597 337.057 66.9622 337.154 66.3438C337.285 65.6927 337.512 65.0742 337.838 64.4883C338.196 63.9023 338.717 63.4141 339.4 63.0234C339.856 62.763 340.458 62.5677 341.207 62.4375C341.956 62.3073 342.786 62.2422 343.697 62.2422C344.609 62.2096 345.553 62.2422 346.529 62.3398C347.506 62.4049 348.434 62.5026 349.312 62.6328C350.224 62.7305 351.038 62.8607 351.754 63.0234C352.503 63.1862 353.072 63.3327 353.463 63.4629C353.919 63.6257 354.407 63.6419 354.928 63.5117C355.383 63.4141 355.872 63.2025 356.393 62.877C356.913 62.5514 357.451 61.9655 358.004 61.1191ZM372.457 81.1387C373.368 81.1387 374.215 81.041 374.996 80.8457C375.647 80.6829 376.266 80.4225 376.852 80.0645C377.47 79.6738 377.877 79.1042 378.072 78.3555C378.723 78.4857 379.277 78.5996 379.732 78.6973C380.188 78.7624 380.579 78.8275 380.904 78.8926C381.262 78.9902 381.572 79.0553 381.832 79.0879C382.092 79.153 382.402 79.2181 382.76 79.2832C383.085 79.3483 383.476 79.4297 383.932 79.5273C384.42 79.5924 384.99 79.6901 385.641 79.8203C385.152 79.7552 384.648 79.804 384.127 79.9668C383.639 80.1296 383.167 80.3086 382.711 80.5039C382.19 80.7318 381.702 81.0085 381.246 81.334C380.953 81.5293 380.611 81.8223 380.221 82.2129C379.863 82.6035 379.342 82.9779 378.658 83.3359C377.975 83.694 377.063 84.0033 375.924 84.2637C374.817 84.4915 373.385 84.5729 371.627 84.5078C369.511 84.4427 367.737 84.0684 366.305 83.3848C364.872 82.6686 363.717 81.806 362.838 80.7969C361.959 79.7552 361.324 78.6322 360.934 77.4277C360.543 76.2233 360.331 75.1003 360.299 74.0586C360.266 73.0169 360.576 71.9264 361.227 70.7871C361.878 69.6478 362.789 68.6061 363.961 67.6621C365.165 66.7181 366.614 65.9531 368.307 65.3672C369.999 64.7487 371.855 64.4395 373.873 64.4395C375.045 64.4395 376.119 64.5859 377.096 64.8789C378.105 65.1393 379.016 65.4974 379.83 65.9531C380.676 66.4089 381.409 66.9297 382.027 67.5156C382.646 68.069 383.167 68.6387 383.59 69.2246C384.013 69.8431 384.371 70.4941 384.664 71.1777C384.924 71.7637 385.136 72.431 385.299 73.1797C385.462 73.9284 385.51 74.6934 385.445 75.4746C382.971 75.5397 380.969 75.5885 379.439 75.6211C377.942 75.6536 376.77 75.6699 375.924 75.6699H373.727H372.066C371.48 75.6699 370.715 75.6862 369.771 75.7188C368.827 75.7513 367.672 75.8001 366.305 75.8652C366.467 77.1673 366.874 78.1764 367.525 78.8926C368.209 79.5762 368.925 80.097 369.674 80.4551C370.52 80.8457 371.448 81.0736 372.457 81.1387ZM368.062 72.3496C369.104 72.4147 369.967 72.4635 370.65 72.4961C371.367 72.5286 371.952 72.5612 372.408 72.5938C372.896 72.6263 373.287 72.6426 373.58 72.6426H374.801C375.615 72.6426 377.128 72.5938 379.342 72.4961C379.244 71.0638 378.935 69.9733 378.414 69.2246C377.926 68.4759 377.405 67.9225 376.852 67.5645C376.201 67.1738 375.484 66.946 374.703 66.8809C372.587 66.9134 371.008 67.3529 369.967 68.1992C368.958 69.0456 368.323 70.429 368.062 72.3496ZM408.932 61.1191C408.639 61.8353 408.378 62.4863 408.15 63.0723C407.955 63.6582 407.776 64.179 407.613 64.6348C407.451 65.1556 407.304 65.6113 407.174 66.002C407.044 66.4577 406.897 66.9785 406.734 67.5645C406.572 68.0853 406.36 68.7363 406.1 69.5176C405.872 70.2663 405.595 71.1615 405.27 72.2031C405.009 70.6406 404.537 69.4036 403.854 68.4922C403.17 67.5482 402.47 66.8158 401.754 66.2949C400.908 65.709 399.996 65.2858 399.02 65.0254C397.262 64.7324 395.992 64.765 395.211 65.123C394.43 65.4811 393.909 65.9368 393.648 66.4902C393.518 66.7181 393.372 67.0111 393.209 67.3691C393.079 67.6947 392.965 68.0365 392.867 68.3945C392.802 68.7526 392.786 69.1107 392.818 69.4688C392.851 69.8268 392.997 70.1198 393.258 70.3477C393.421 70.5104 393.844 70.7383 394.527 71.0312C395.211 71.2917 396.025 71.6009 396.969 71.959C397.945 72.2845 398.971 72.6426 400.045 73.0332C401.152 73.4238 402.193 73.8145 403.17 74.2051C404.146 74.5957 404.993 74.9863 405.709 75.377C406.425 75.7676 406.897 76.1257 407.125 76.4512C407.32 76.7767 407.532 77.2161 407.76 77.7695C408.02 78.2904 408.199 78.8763 408.297 79.5273C408.427 80.1458 408.46 80.7969 408.395 81.4805C408.362 82.1315 408.183 82.7826 407.857 83.4336C407.532 84.0846 407.011 84.6868 406.295 85.2402C405.611 85.7936 404.684 86.2493 403.512 86.6074C402.145 87.0306 400.826 87.1445 399.557 86.9492C398.287 86.7539 397.115 86.4609 396.041 86.0703C394.999 85.6797 394.088 85.3053 393.307 84.9473C392.525 84.5566 391.972 84.3939 391.646 84.459C391.288 84.5241 390.882 84.7031 390.426 84.9961C389.97 85.2891 389.531 85.5983 389.107 85.9238C388.717 86.2168 388.375 86.4935 388.082 86.7539C387.789 86.9818 387.643 87.0632 387.643 86.998C387.643 86.9329 387.691 86.7376 387.789 86.4121C387.919 86.0866 388.049 85.696 388.18 85.2402C388.342 84.752 388.489 84.2311 388.619 83.6777C388.782 83.0918 388.896 82.5384 388.961 82.0176C389.026 81.5944 389.107 81.0736 389.205 80.4551C389.27 79.9017 389.352 79.2344 389.449 78.4531C389.579 77.6393 389.726 76.6628 389.889 75.5234C390.051 76.3698 390.279 77.1022 390.572 77.7207C390.898 78.3392 391.207 78.8763 391.5 79.332C391.858 79.8529 392.2 80.2923 392.525 80.6504C393.014 81.1061 393.583 81.5293 394.234 81.9199C394.918 82.3105 395.602 82.6523 396.285 82.9453C396.969 83.2057 397.62 83.3685 398.238 83.4336C398.857 83.4987 399.378 83.4336 399.801 83.2383C400.224 83.043 400.582 82.6849 400.875 82.1641C401.201 81.6432 401.428 81.0736 401.559 80.4551C401.689 79.8366 401.738 79.2507 401.705 78.6973C401.673 78.1113 401.526 77.6393 401.266 77.2812C401.07 77.0534 400.615 76.7604 399.898 76.4023C399.215 76.0443 398.385 75.6536 397.408 75.2305C396.464 74.8073 395.455 74.3678 394.381 73.9121C393.339 73.4564 392.346 73.0007 391.402 72.5449C390.491 72.0566 389.726 71.6009 389.107 71.1777C388.521 70.722 388.196 70.3151 388.131 69.957C388.066 69.4362 388.017 68.8665 387.984 68.248C387.952 67.597 387.984 66.9622 388.082 66.3438C388.212 65.6927 388.44 65.0742 388.766 64.4883C389.124 63.9023 389.645 63.4141 390.328 63.0234C390.784 62.763 391.386 62.5677 392.135 62.4375C392.883 62.3073 393.714 62.2422 394.625 62.2422C395.536 62.2096 396.48 62.2422 397.457 62.3398C398.434 62.4049 399.361 62.5026 400.24 62.6328C401.152 62.7305 401.965 62.8607 402.682 63.0234C403.43 63.1862 404 63.3327 404.391 63.4629C404.846 63.6257 405.335 63.6419 405.855 63.5117C406.311 63.4141 406.799 63.2025 407.32 62.877C407.841 62.5514 408.378 61.9655 408.932 61.1191ZM436.861 52.916C438.001 52.916 439.026 53.1113 439.938 53.502C440.882 53.86 441.744 54.2669 442.525 54.7227C443.339 55.1784 444.104 55.6016 444.82 55.9922C445.536 56.3503 446.269 56.5293 447.018 56.5293C447.604 56.4967 448.271 56.4154 449.02 56.2852C449.671 56.1549 450.419 55.9596 451.266 55.6992C452.145 55.4062 453.121 54.9831 454.195 54.4297C453.121 55.4714 452.242 56.3503 451.559 57.0664C450.908 57.75 450.403 58.3197 450.045 58.7754C449.622 59.2962 449.312 59.7031 449.117 59.9961C448.922 60.3542 448.629 60.8913 448.238 61.6074C447.88 62.2585 447.392 63.1374 446.773 64.2441C446.155 65.3184 445.374 66.7344 444.43 68.4922C444.43 66.2461 444.202 64.5046 443.746 63.2676C443.323 62.0306 442.851 61.0866 442.33 60.4355C441.712 59.6868 441.012 59.2148 440.23 59.0195C439.514 58.9219 438.798 59.0521 438.082 59.4102C437.366 59.7357 436.65 60.224 435.934 60.875C435.25 61.526 434.583 62.3073 433.932 63.2188C433.313 64.0977 432.743 65.0254 432.223 66.002C431.734 66.9785 431.327 67.9714 431.002 68.9805C430.676 69.957 430.465 70.8685 430.367 71.7148C430.27 72.4635 430.253 73.3424 430.318 74.3516C430.383 75.3281 430.53 76.3372 430.758 77.3789C430.986 78.388 431.279 79.3809 431.637 80.3574C431.995 81.334 432.434 82.2129 432.955 82.9941C433.508 83.7428 434.127 84.3613 434.811 84.8496C435.494 85.3053 436.275 85.5169 437.154 85.4844C438.131 85.4193 439.091 85.1263 440.035 84.6055C440.849 84.1823 441.679 83.5312 442.525 82.6523C443.372 81.7409 444.104 80.4551 444.723 78.7949L451.949 80.1133C449.866 82.6523 447.831 84.5566 445.846 85.8262C443.893 87.0957 442.135 87.9909 440.572 88.5117C438.749 89.0977 437.024 89.3743 435.396 89.3418C433.346 89.1139 431.425 88.4954 429.635 87.4863C427.844 86.4772 426.298 85.2565 424.996 83.8242C423.727 82.3594 422.734 80.7643 422.018 79.0391C421.301 77.3138 420.992 75.6211 421.09 73.9609C421.155 72.8542 421.383 71.5684 421.773 70.1035C422.164 68.6061 422.685 67.0762 423.336 65.5137C424.02 63.9512 424.833 62.4212 425.777 60.9238C426.721 59.4264 427.763 58.0918 428.902 56.9199C430.042 55.7155 431.279 54.7552 432.613 54.0391C433.98 53.2904 435.396 52.916 436.861 52.916ZM465.523 67.125C466.37 67.125 467.249 67.2878 468.16 67.6133C469.072 67.9062 469.951 68.2969 470.797 68.7852C471.643 69.2409 472.408 69.7454 473.092 70.2988C473.808 70.8197 474.394 71.3242 474.85 71.8125C475.663 72.6914 476.217 73.8796 476.51 75.377C476.835 76.8418 476.9 78.3555 476.705 79.918C476.51 81.4479 476.054 82.8965 475.338 84.2637C474.622 85.6309 473.629 86.64 472.359 87.291C471.448 87.7467 470.553 88.1048 469.674 88.3652C468.795 88.6257 467.949 88.821 467.135 88.9512C466.321 89.0814 465.556 89.1465 464.84 89.1465C464.124 89.1465 463.505 89.1302 462.984 89.0977C462.008 89.0326 460.982 88.6908 459.908 88.0723C458.867 87.4538 457.874 86.6888 456.93 85.7773C456.018 84.8659 455.237 83.873 454.586 82.7988C453.935 81.6921 453.544 80.6504 453.414 79.6738C453.219 78.3392 453.186 76.9395 453.316 75.4746C453.447 74.0098 453.919 72.6589 454.732 71.4219C455.579 70.1849 456.848 69.1595 458.541 68.3457C460.266 67.5319 462.594 67.125 465.523 67.125ZM463.912 86.0703C464.27 86.1354 464.758 86.054 465.377 85.8262C465.995 85.5658 466.598 85.1589 467.184 84.6055C467.802 84.0521 468.339 83.3522 468.795 82.5059C469.283 81.627 469.576 80.569 469.674 79.332C469.771 78.1276 469.771 77.0208 469.674 76.0117C469.609 75.0026 469.462 74.1237 469.234 73.375C469.007 72.5938 468.746 71.959 468.453 71.4707C468.16 70.9824 467.851 70.6406 467.525 70.4453C466.972 70.1523 466.305 69.9245 465.523 69.7617C464.742 69.5664 464.075 69.599 463.521 69.8594C463.261 69.9896 462.936 70.2663 462.545 70.6895C462.154 71.1126 461.764 71.6497 461.373 72.3008C460.982 72.9193 460.624 73.6354 460.299 74.4492C460.006 75.263 459.794 76.1094 459.664 76.9883C459.534 77.8672 459.501 78.8112 459.566 79.8203C459.664 80.8294 459.876 81.7897 460.201 82.7012C460.527 83.5801 460.982 84.3451 461.568 84.9961C462.187 85.6146 462.968 85.9727 463.912 86.0703ZM479.293 66.5391C480.139 66.7018 480.872 66.832 481.49 66.9297C482.141 66.9948 482.695 67.0599 483.15 67.125C483.671 67.1901 484.127 67.2389 484.518 67.2715C484.908 67.304 485.364 67.3366 485.885 67.3691C486.764 67.4017 488.001 67.4017 489.596 67.3691C488.652 67.304 487.903 67.5482 487.35 68.1016C486.829 68.6224 486.438 69.2246 486.178 69.9082C485.852 70.722 485.673 71.666 485.641 72.7402C485.576 74.1725 485.608 75.4746 485.738 76.6465C485.901 77.7858 486.178 78.7624 486.568 79.5762C486.992 80.3574 487.545 80.9434 488.229 81.334C488.912 81.6921 489.791 81.7897 490.865 81.627C491.939 81.4642 492.753 81.0898 493.307 80.5039C493.893 79.8854 494.316 79.1367 494.576 78.2578C494.837 77.3464 494.983 76.321 495.016 75.1816C495.081 74.0423 495.13 72.8542 495.162 71.6172C495.162 70.3802 495.146 69.5013 495.113 68.9805C495.113 68.4271 495.097 68.069 495.064 67.9062C495.032 67.7435 494.983 67.6784 494.918 67.7109C494.853 67.7109 494.771 67.6296 494.674 67.4668C494.609 67.3366 494.511 67.2064 494.381 67.0762C494.283 66.946 494.153 66.7995 493.99 66.6367C493.827 66.4414 493.648 66.2461 493.453 66.0508C494.299 66.0833 495.048 66.1159 495.699 66.1484C496.383 66.1484 496.952 66.1647 497.408 66.1973C497.929 66.2298 498.385 66.2624 498.775 66.2949C499.133 66.3275 499.605 66.3763 500.191 66.4414C500.68 66.5065 501.314 66.5716 502.096 66.6367C502.877 66.7018 503.805 66.7995 504.879 66.9297C504.13 67.0924 503.528 67.3366 503.072 67.6621C502.617 67.9876 502.258 68.3132 501.998 68.6387C501.705 68.9967 501.493 69.3874 501.363 69.8105C501.266 70.3639 501.266 71.2103 501.363 72.3496C501.428 73.3587 501.591 74.7422 501.852 76.5C502.112 78.2578 502.519 80.569 503.072 83.4336L499.215 85.7285L498.434 79.2344C497.49 80.8294 496.48 82.0664 495.406 82.9453C494.365 83.7917 493.388 84.4102 492.477 84.8008C491.402 85.2565 490.361 85.5169 489.352 85.582C488.017 85.582 486.861 85.5007 485.885 85.3379C484.941 85.1426 484.127 84.8984 483.443 84.6055C482.76 84.3125 482.206 83.987 481.783 83.6289C481.393 83.2383 481.1 82.8477 480.904 82.457C480.449 81.6432 480.204 80.6016 480.172 79.332C480.139 78.0299 480.188 76.7441 480.318 75.4746C480.449 74.1725 480.595 72.9844 480.758 71.9102C480.921 70.8359 480.969 70.1035 480.904 69.7129C480.839 69.4199 480.742 69.0944 480.611 68.7363C480.481 68.4434 480.318 68.1178 480.123 67.7598C479.928 67.3691 479.651 66.9622 479.293 66.5391ZM504.146 66.2461C505.188 66.0833 506.035 65.9531 506.686 65.8555C507.369 65.7253 507.923 65.6276 508.346 65.5625C508.834 65.4648 509.208 65.3835 509.469 65.3184C509.729 65.2533 510.104 65.1556 510.592 65.0254C511.015 64.8952 511.568 64.7487 512.252 64.5859C512.936 64.3906 513.798 64.1302 514.84 63.8047C514.579 64.1302 514.368 64.4232 514.205 64.6836C514.075 64.9115 513.945 65.1068 513.814 65.2695C513.684 65.4648 513.57 65.6439 513.473 65.8066C513.375 65.9694 513.277 66.2135 513.18 66.5391C513.115 66.7995 513.033 67.1738 512.936 67.6621C512.838 68.1178 512.757 68.7201 512.691 69.4688C514.449 68.362 516.061 67.5319 517.525 66.9785C519.023 66.4251 520.325 66.0345 521.432 65.8066C522.734 65.5462 523.906 65.4486 524.947 65.5137C526.249 65.6113 527.454 65.9043 528.561 66.3926C529.7 66.8483 530.725 67.4017 531.637 68.0527C532.548 68.7038 533.346 69.4199 534.029 70.2012C534.713 70.9824 535.25 71.7637 535.641 72.5449C535.901 73.0658 536.064 73.8145 536.129 74.791C536.227 75.7676 536.129 76.8092 535.836 77.916C535.543 79.0228 535.022 80.1133 534.273 81.1875C533.557 82.2292 532.532 83.0592 531.197 83.6777C528.886 84.7194 526.591 85.3053 524.312 85.4355C523.336 85.5007 522.327 85.4681 521.285 85.3379C520.276 85.2077 519.251 84.931 518.209 84.5078C517.2 84.0846 516.223 83.4824 515.279 82.7012C514.335 81.8874 513.473 80.8457 512.691 79.5762C512.431 81.2363 512.236 82.6849 512.105 83.9219C512.008 85.1263 511.943 86.1354 511.91 86.9492C511.878 87.8932 511.878 88.6908 511.91 89.3418C511.975 89.9928 512.105 90.6927 512.301 91.4414C512.464 92.0924 512.691 92.8411 512.984 93.6875C513.31 94.5664 513.717 95.4779 514.205 96.4219C514.01 96.3568 513.733 96.3079 513.375 96.2754C513.049 96.2754 512.708 96.3079 512.35 96.373C511.959 96.4382 511.52 96.5033 511.031 96.5684C510.576 96.666 510.071 96.7799 509.518 96.9102C509.062 97.0078 508.525 97.1217 507.906 97.252C507.32 97.4147 506.718 97.5938 506.1 97.7891C506.458 97.3659 506.734 96.8776 506.93 96.3242C507.158 95.8034 507.337 95.3151 507.467 94.8594C507.597 94.306 507.711 93.7526 507.809 93.1992C507.841 92.7109 507.89 91.7832 507.955 90.416C508.053 89.0814 508.134 87.5352 508.199 85.7773C508.264 83.987 508.313 82.1152 508.346 80.1621C508.411 78.209 508.443 76.4023 508.443 74.7422C508.476 73.0495 508.476 71.6172 508.443 70.4453C508.411 69.2734 508.346 68.5898 508.248 68.3945C508.118 68.1667 507.874 67.9225 507.516 67.6621C507.223 67.4342 506.799 67.2064 506.246 66.9785C505.725 66.7507 505.025 66.5065 504.146 66.2461ZM515.768 75.1328C515.54 75.8815 515.491 76.6139 515.621 77.3301C515.751 78.0462 516.077 78.7135 516.598 79.332C517.151 79.9505 517.916 80.5039 518.893 80.9922C519.902 81.4479 521.155 81.7897 522.652 82.0176C524.15 82.2454 525.289 82.2129 526.07 81.9199C526.852 81.627 527.421 81.1712 527.779 80.5527C528.17 79.9017 528.43 79.153 528.561 78.3066C528.691 77.4277 528.854 76.5163 529.049 75.5723C529.244 74.6608 529.212 73.7331 528.951 72.7891C528.691 71.8125 528.316 70.9336 527.828 70.1523C527.372 69.3711 526.852 68.7363 526.266 68.248C525.712 67.7272 525.224 67.4668 524.801 67.4668C523.792 67.4668 522.799 67.7272 521.822 68.248C520.846 68.7689 519.951 69.4199 519.137 70.2012C518.323 70.9824 517.607 71.8288 516.988 72.7402C516.402 73.6191 515.995 74.4167 515.768 75.1328ZM551.217 67.125C552.063 67.125 552.942 67.2878 553.854 67.6133C554.765 67.9062 555.644 68.2969 556.49 68.7852C557.337 69.2409 558.102 69.7454 558.785 70.2988C559.501 70.8197 560.087 71.3242 560.543 71.8125C561.357 72.6914 561.91 73.8796 562.203 75.377C562.529 76.8418 562.594 78.3555 562.398 79.918C562.203 81.4479 561.747 82.8965 561.031 84.2637C560.315 85.6309 559.322 86.64 558.053 87.291C557.141 87.7467 556.246 88.1048 555.367 88.3652C554.488 88.6257 553.642 88.821 552.828 88.9512C552.014 89.0814 551.249 89.1465 550.533 89.1465C549.817 89.1465 549.199 89.1302 548.678 89.0977C547.701 89.0326 546.676 88.6908 545.602 88.0723C544.56 87.4538 543.567 86.6888 542.623 85.7773C541.712 84.8659 540.93 83.873 540.279 82.7988C539.628 81.6921 539.238 80.6504 539.107 79.6738C538.912 78.3392 538.88 76.9395 539.01 75.4746C539.14 74.0098 539.612 72.6589 540.426 71.4219C541.272 70.1849 542.542 69.1595 544.234 68.3457C545.96 67.5319 548.287 67.125 551.217 67.125ZM549.605 86.0703C549.964 86.1354 550.452 86.054 551.07 85.8262C551.689 85.5658 552.291 85.1589 552.877 84.6055C553.495 84.0521 554.033 83.3522 554.488 82.5059C554.977 81.627 555.27 80.569 555.367 79.332C555.465 78.1276 555.465 77.0208 555.367 76.0117C555.302 75.0026 555.156 74.1237 554.928 73.375C554.7 72.5938 554.439 71.959 554.146 71.4707C553.854 70.9824 553.544 70.6406 553.219 70.4453C552.665 70.1523 551.998 69.9245 551.217 69.7617C550.436 69.5664 549.768 69.599 549.215 69.8594C548.954 69.9896 548.629 70.2663 548.238 70.6895C547.848 71.1126 547.457 71.6497 547.066 72.3008C546.676 72.9193 546.318 73.6354 545.992 74.4492C545.699 75.263 545.488 76.1094 545.357 76.9883C545.227 77.8672 545.195 78.8112 545.26 79.8203C545.357 80.8294 545.569 81.7897 545.895 82.7012C546.22 83.5801 546.676 84.3451 547.262 84.9961C547.88 85.6146 548.661 85.9727 549.605 86.0703ZM566.256 83.6289C566.484 82.5547 566.646 81.6107 566.744 80.7969C566.874 79.9505 566.972 79.2507 567.037 78.6973C567.102 78.0462 567.135 77.4928 567.135 77.0371C567.102 76.4837 567.07 75.8327 567.037 75.084C567.037 74.3027 567.005 73.5378 566.939 72.7891C566.907 72.0078 566.858 71.3242 566.793 70.7383C566.728 70.1198 566.646 69.6803 566.549 69.4199C566.419 69.1595 566.24 68.8828 566.012 68.5898C565.556 68.0365 564.889 67.4993 564.01 66.9785C564.758 66.8158 565.393 66.6855 565.914 66.5879C566.467 66.4577 566.923 66.3438 567.281 66.2461C567.672 66.1159 568.014 66.002 568.307 65.9043C568.567 65.8066 568.876 65.709 569.234 65.6113C569.527 65.5462 569.885 65.4648 570.309 65.3672C570.732 65.2695 571.22 65.1556 571.773 65.0254L571.627 69.4688C572.669 68.2318 573.727 67.304 574.801 66.6855C575.875 66.0671 576.884 65.6276 577.828 65.3672C578.902 65.0417 579.96 64.8789 581.002 64.8789C582.304 64.944 583.508 65.1556 584.615 65.5137C585.755 65.8717 586.731 66.2949 587.545 66.7832C588.391 67.2389 589.075 67.7272 589.596 68.248C590.117 68.7689 590.426 69.2246 590.523 69.6152C590.914 70.8848 591.012 72.0566 590.816 73.1309C590.621 74.1725 590.361 75.1979 590.035 76.207C589.742 77.1836 589.482 78.1602 589.254 79.1367C589.059 80.1133 589.14 81.1712 589.498 82.3105C589.628 82.6035 589.758 82.8965 589.889 83.1895C590.019 83.4499 590.182 83.7103 590.377 83.9707C590.572 84.2311 590.8 84.4427 591.061 84.6055C590.702 84.5729 590.344 84.5566 589.986 84.5566C589.628 84.5241 589.303 84.4915 589.01 84.459C588.652 84.4264 588.326 84.3939 588.033 84.3613C587.708 84.3288 587.268 84.3125 586.715 84.3125C585.771 84.3125 584.306 84.3613 582.32 84.459C582.613 83.7754 582.841 83.2057 583.004 82.75C583.199 82.2617 583.362 81.8711 583.492 81.5781C583.622 81.2201 583.72 80.9434 583.785 80.748C584.176 79.804 584.404 78.7298 584.469 77.5254C584.566 76.321 584.485 75.1003 584.225 73.8633C584.127 73.4401 583.964 72.9355 583.736 72.3496C583.508 71.7637 583.199 71.194 582.809 70.6406C582.451 70.0872 582.011 69.6152 581.49 69.2246C581.002 68.834 580.432 68.6061 579.781 68.541C579.13 68.4759 578.398 68.6387 577.584 69.0293C576.803 69.4199 575.956 70.1361 575.045 71.1777C574.361 72.0566 573.824 73.1309 573.434 74.4004C573.076 75.4746 572.831 76.8255 572.701 78.4531C572.571 80.0482 572.766 81.9199 573.287 84.0684C572.831 84.0033 572.408 83.9707 572.018 83.9707C571.627 83.9382 571.301 83.9056 571.041 83.873C570.715 83.8405 570.423 83.8079 570.162 83.7754C569.869 83.7754 569.544 83.7591 569.186 83.7266C568.86 83.7266 568.453 83.7266 567.965 83.7266C567.477 83.694 566.907 83.6615 566.256 83.6289ZM615.572 61.1191C615.279 61.8353 615.019 62.4863 614.791 63.0723C614.596 63.6582 614.417 64.179 614.254 64.6348C614.091 65.1556 613.945 65.6113 613.814 66.002C613.684 66.4577 613.538 66.9785 613.375 67.5645C613.212 68.0853 613.001 68.7363 612.74 69.5176C612.512 70.2663 612.236 71.1615 611.91 72.2031C611.65 70.6406 611.178 69.4036 610.494 68.4922C609.811 67.5482 609.111 66.8158 608.395 66.2949C607.548 65.709 606.637 65.2858 605.66 65.0254C603.902 64.7324 602.633 64.765 601.852 65.123C601.07 65.4811 600.549 65.9368 600.289 66.4902C600.159 66.7181 600.012 67.0111 599.85 67.3691C599.719 67.6947 599.605 68.0365 599.508 68.3945C599.443 68.7526 599.426 69.1107 599.459 69.4688C599.492 69.8268 599.638 70.1198 599.898 70.3477C600.061 70.5104 600.484 70.7383 601.168 71.0312C601.852 71.2917 602.665 71.6009 603.609 71.959C604.586 72.2845 605.611 72.6426 606.686 73.0332C607.792 73.4238 608.834 73.8145 609.811 74.2051C610.787 74.5957 611.633 74.9863 612.35 75.377C613.066 75.7676 613.538 76.1257 613.766 76.4512C613.961 76.7767 614.173 77.2161 614.4 77.7695C614.661 78.2904 614.84 78.8763 614.938 79.5273C615.068 80.1458 615.1 80.7969 615.035 81.4805C615.003 82.1315 614.824 82.7826 614.498 83.4336C614.173 84.0846 613.652 84.6868 612.936 85.2402C612.252 85.7936 611.324 86.2493 610.152 86.6074C608.785 87.0306 607.467 87.1445 606.197 86.9492C604.928 86.7539 603.756 86.4609 602.682 86.0703C601.64 85.6797 600.729 85.3053 599.947 84.9473C599.166 84.5566 598.613 84.3939 598.287 84.459C597.929 84.5241 597.522 84.7031 597.066 84.9961C596.611 85.2891 596.171 85.5983 595.748 85.9238C595.357 86.2168 595.016 86.4935 594.723 86.7539C594.43 86.9818 594.283 87.0632 594.283 86.998C594.283 86.9329 594.332 86.7376 594.43 86.4121C594.56 86.0866 594.69 85.696 594.82 85.2402C594.983 84.752 595.13 84.2311 595.26 83.6777C595.423 83.0918 595.536 82.5384 595.602 82.0176C595.667 81.5944 595.748 81.0736 595.846 80.4551C595.911 79.9017 595.992 79.2344 596.09 78.4531C596.22 77.6393 596.367 76.6628 596.529 75.5234C596.692 76.3698 596.92 77.1022 597.213 77.7207C597.538 78.3392 597.848 78.8763 598.141 79.332C598.499 79.8529 598.84 80.2923 599.166 80.6504C599.654 81.1061 600.224 81.5293 600.875 81.9199C601.559 82.3105 602.242 82.6523 602.926 82.9453C603.609 83.2057 604.26 83.3685 604.879 83.4336C605.497 83.4987 606.018 83.4336 606.441 83.2383C606.865 83.043 607.223 82.6849 607.516 82.1641C607.841 81.6432 608.069 81.0736 608.199 80.4551C608.329 79.8366 608.378 79.2507 608.346 78.6973C608.313 78.1113 608.167 77.6393 607.906 77.2812C607.711 77.0534 607.255 76.7604 606.539 76.4023C605.855 76.0443 605.025 75.6536 604.049 75.2305C603.105 74.8073 602.096 74.3678 601.021 73.9121C599.98 73.4564 598.987 73.0007 598.043 72.5449C597.132 72.0566 596.367 71.6009 595.748 71.1777C595.162 70.722 594.837 70.3151 594.771 69.957C594.706 69.4362 594.658 68.8665 594.625 68.248C594.592 67.597 594.625 66.9622 594.723 66.3438C594.853 65.6927 595.081 65.0742 595.406 64.4883C595.764 63.9023 596.285 63.4141 596.969 63.0234C597.424 62.763 598.027 62.5677 598.775 62.4375C599.524 62.3073 600.354 62.2422 601.266 62.2422C602.177 62.2096 603.121 62.2422 604.098 62.3398C605.074 62.4049 606.002 62.5026 606.881 62.6328C607.792 62.7305 608.606 62.8607 609.322 63.0234C610.071 63.1862 610.641 63.3327 611.031 63.4629C611.487 63.6257 611.975 63.6419 612.496 63.5117C612.952 63.4141 613.44 63.2025 613.961 62.877C614.482 62.5514 615.019 61.9655 615.572 61.1191Z" fill="currentColor"/>
</svg>
